#!OML:ASF X:\für Bonn\!DataBase\2005_08_11_Bastian_Final\c3d\Bastian.ASF
:FULLY-SPECIFIED
:DEGREES
91
root 7.24104 13.9531 -4.22871 184.671 84.9951 -165.977
lowerback 63.0053 -6.24519 6.63047
upperback 18.5585 3.05314 5.88914
thorax -0.501652 3.28161 2.5466
lowerneck -4.35681 -13.8988 -2.26024
upperneck -15.7993 -17.0049 18.9956
head -2.03711 -9.19599 5.94468
rclavicle -1.59028e-014 8.74653e-015
rhumerus 31.0894 3.33168 -50.9265
rradius 25.9575
rwrist -3.77071
rhand -32.0634 -1.98338
rfingers 7.12502
rthumb -5.30994 -31.8969
lclavicle -1.59028e-014 8.74653e-015
lhumerus -1.2044 -23.3984 82.3419
lradius 35.2328
lwrist 18.5607
lhand -13.069 -8.58369
lfingers 7.12502
lthumb 13.0267 20.9896
rfemur -49.7019 -5.24073 20.0677
rtibia 81.3776
rfoot -15.6314 1.26423
rtoes -4.99008
lfemur -38.1938 10.1815 -24.6364
ltibia 87.5654
lfoot -32.4015 -5.30873
ltoes 4.75874
92
root 7.24776 13.8353 -4.23598 182.555 85.0634 -168.263
lowerback 63.3375 -6.19485 6.52567
upperback 18.5624 3.12651 5.96789
thorax -0.509369 3.30345 2.65933
lowerneck -4.06642 -13.9404 -2.2094
upperneck -16.2034 -17.0178 18.9973
head -2.20805 -9.24028 5.98576
rclavicle -4.77083e-014 -2.14687e-014
rhumerus 31.56 3.24631 -50.3572
rradius 25.8236
rwrist -3.93083
rhand -32.2057 -1.88293
rfingers 7.12502
rthumb -5.44731 -31.7929
lclavicle -4.77083e-014 -2.14687e-014
lhumerus -1.32389 -23.3581 82.3527
lradius 35.4908
lwrist 18.7676
lhand -13.2153 -8.43228
lfingers 7.12502
lthumb 12.8857 21.1499
rfemur -50.7743 -5.3685 19.8522
rtibia 82.751
rfoot -16.0256 1.32757
rtoes -5.14137
lfemur -39.0654 10.1416 -25.0098
ltibia 88.8908
lfoot -32.996 -5.36615
ltoes 5.39369
93
root 7.25386 13.7167 -4.24232 180.811 85.1435 -170.189
lowerback 63.6748 -6.11558 6.40849
upperback 18.5517 3.22103 6.06521
thorax -0.53685 3.32902 2.78841
lowerneck -3.82833 -13.9592 -2.19037
upperneck -16.5458 -17.0069 18.9966
head -2.35187 -9.26487 6.02415
rclavicle -3.18055e-014 4.13472e-014
rhumerus 32.0117 3.0933 -49.8852
rradius 25.687
rwrist -3.92481
rhand -32.3037 -1.76097
rfingers 7.12502
rthumb -5.54196 -31.6685
lclavicle -3.18055e-014 4.13472e-014
lhumerus -1.46481 -23.2524 82.3933
lradius 35.7677
lwrist 18.9904
lhand -13.3506 -8.28253
lfingers 7.12502
lthumb 12.7552 21.3079
rfemur -51.8582 -5.44048 19.6721
rtibia 84.1082
rfoot -16.4338 1.3819
rtoes -5.10746
lfemur -39.9762 10.1389 -25.3436
ltibia 90.2335
lfoot -33.5548 -5.37537
ltoes 5.78254
94
root 7.2627 13.5954 -4.249 179.277 85.1946 -171.863
lowerback 64.0169 -6.08172 6.35171
upperback 18.5306 3.30155 6.14281
thorax -0.567937 3.35496 2.87683
lowerneck -3.57318 -13.9926 -2.16005
upperneck -16.8757 -17.0195 18.9818
head -2.49525 -9.30126 6.05709
rclavicle -9.54166e-015 -6.59965e-014
rhumerus 32.4173 2.91323 -49.4668
rradius 25.5575
rwrist -3.90045
rhand -32.3347 -1.67889
rfingers 7.12502
rthumb -5.57192 -31.5856
lclavicle -9.54166e-015 -6.59965e-014
lhumerus -1.64367 -23.1711 82.4278
lradius 36.0792
lwrist 19.1284
lhand -13.4467 -8.12284
lfingers 7.12502
lthumb 12.6625 21.4733
rfemur -52.8948 -5.56495 19.529
rtibia 85.4653
rfoot -16.8351 1.42616
rtoes -5.24301
lfemur -40.8274 10.1343 -25.6387
ltibia 91.5892
lfoot -34.1507 -5.4141
ltoes 6.19835
95
root 7.27071 13.4723 -4.25593 178.05 85.2522 -173.233
lowerback 64.3657 -6.03873 6.29505
upperback 18.4825 3.38736 6.22902
thorax -0.630246 3.37844 2.97121
lowerneck -3.31309 -14.0118 -2.18071
upperneck -17.1675 -17.0147 18.9932
head -2.62213 -9.32527 6.10324
rclavicle 9.54166e-015 7.31528e-014
rhumerus 32.7652 2.80005 -49.0389
rradius 25.4411
rwrist -3.90055
rhand -32.3933 -1.58402
rfingers 7.12502
rthumb -5.62843 -31.4893
lclavicle 9.54166e-015 7.31528e-014
lhumerus -1.86314 -23.033 82.4913
lradius 36.3759
lwrist 19.2106
lhand -13.5035 -7.99525
lfingers 7.12502
lthumb 12.6078 21.6043
rfemur -53.9348 -5.68892 19.4132
rtibia 86.8036
rfoot -17.2382 1.50107
rtoes -5.33009
lfemur -41.7042 10.1308 -25.9111
ltibia 92.9552
lfoot -34.7264 -5.45073
ltoes 6.63625
96
root 7.28078 13.3504 -4.26204 177.127 85.2973 -174.269
lowerback 64.6919 -6.02749 6.27849
upperback 18.4526 3.45923 6.2861
thorax -0.664696 3.40405 3.02349
lowerneck -3.07527 -14.0242 -2.21598
upperneck -17.4341 -16.9977 19.0578
head -2.73199 -9.34235 6.16379
rclavicle 8.5875e-014 0
rhumerus 33.1049 2.58904 -48.7414
rradius 25.3359
rwrist -3.80626
rhand -32.3881 -1.43697
rfingers 7.12502
rthumb -5.62349 -31.3424
lclavicle 8.5875e-014 0
lhumerus -2.06721 -22.9262 82.5047
lradius 36.7193
lwrist 19.3599
lhand -13.5693 -7.89155
lfingers 7.12502
lthumb 12.5444 21.7119
rfemur -54.9252 -5.82463 19.3415
rtibia 88.1286
rfoot -17.6351 1.54045
rtoes -5.58587
lfemur -42.5313 10.1567 -26.1363
ltibia 94.3237
lfoot -35.3096 -5.5145
ltoes 6.83867
97
root 7.29088 13.2262 -4.26863 176.195 85.3504 -175.299
lowerback 65.0783 -6.01969 6.28325
upperback 18.355 3.53819 6.3282
thorax -0.771348 3.42985 3.04595
lowerneck -2.83333 -14.0383 -2.27638
upperneck -17.6334 -16.9888 19.1405
head -2.81726 -9.36018 6.22861
rclavicle 3.18055e-015 -1.01778e-013
rhumerus 33.3384 2.45048 -48.4341
rradius 25.2533
rwrist -3.74345
rhand -32.3887 -1.39393
rfingers 7.12502
rthumb -5.62399 -31.2993
lclavicle 3.18055e-015 -1.01778e-013
lhumerus -2.35433 -22.8113 82.543
lradius 37.0791
lwrist 19.3918
lhand -13.5837 -7.85043
lfingers 7.12502
lthumb 12.5305 21.7538
rfemur -55.9074 -5.95077 19.2623
rtibia 89.4473
rfoot -18.0453 1.58428
rtoes -5.57262
lfemur -43.3594 10.1928 -26.3651
ltibia 95.6997
lfoot -35.8569 -5.52195
ltoes 6.98934
98
root 7.30123 13.1031 -4.27481 176.272 85.3923 -175.309
lowerback 65.4419 -6.05117 6.36061
upperback 18.2494 3.61175 6.35369
thorax -0.878504 3.45882 3.02238
lowerneck -2.58125 -14.05 -2.3644
upperneck -17.802 -16.9727 19.2896
head -2.88592 -9.37529 6.31519
rclavicle 9.54166e-015 4.13472e-014
rhumerus 33.5419 2.33126 -48.1894
rradius 25.1548
rwrist -3.77359
rhand -32.4126 -1.20866
rfingers 7.12502
rthumb -5.64713 -31.1134
lclavicle 9.54166e-015 4.13472e-014
lhumerus -2.64643 -22.7737 82.5327
lradius 37.4409
lwrist 19.5414
lhand -13.5954 -7.88464
lfingers 7.12502
lthumb 12.5192 21.7203
rfemur -56.8579 -6.08098 19.2872
rtibia 90.7357
rfoot -18.4349 1.60459
rtoes -5.79048
lfemur -44.1783 10.212 -26.4879
ltibia 97.0845
lfoot -36.3891 -5.5898
ltoes 7.39744
